<?xml version="1.0" encoding="utf-8"?>
<!-- Generator: Adobe Illustrator 23.0.4, SVG Export Plug-In . SVG Version: 6.00 Build 0)  -->
<svg version="1.1" id="Livello_1" xmlns="http://www.w3.org/2000/svg" xmlns:xlink="http://www.w3.org/1999/xlink" x="0px" y="0px"
	 viewBox="0 0 1380.59 1000" style="enable-background:new 0 0 1380.59 1000;" xml:space="preserve">
<style type="text/css">
	.st0{fill:#E3943F;}
	.st1{fill:#4798B2;}
	.st2{fill:#337B9F;}
	.st3{fill:#52A7A0;}
	.st4{fill:#317691;}
	.st5{fill:#E57E3A;}
	.st6{fill:#D95E37;}
	.st7{fill:#76512A;}
	.st8{opacity:0.3;fill:#DE4F3B;}
	.st9{fill:#CA6B38;}
	.st10{fill:#235E84;}
	.st11{fill:#FFFFFF;}
</style>
<g>
	<g>
		<g>
			<path class="st0" d="M416.56,86.7c0-39.32,32-71.41,71.88-71.41c-149.97,0-272.34,121.54-273.54,270.87
				c0.9-38.82,32.65-70.01,71.68-70.01c39.6,0,71.7,32.1,71.7,71.7c0,39.6-32.1,71.7-71.7,71.7c-38.97,0-70.68-31.09-71.68-69.82
				c0.73,38.79,32.52,70.15,71.48,70.15c39.89,0,71.99-32.09,71.99-71.51c0-71.51,58.18-130.16,130.07-130.16
				C448.56,158.21,416.56,126.11,416.56,86.7z"/>
			<path class="st1" d="M1094,216.14c39.03,0,70.78,31.19,71.68,70.01c-1.2-149.33-123.56-270.87-273.53-270.87
				c39.41,0,71.51,32.09,71.51,71.41c0,39.41-32.09,71.51-71.51,71.51c71.26,0,129.74,58.25,130.15,129.41
				C1022.43,248.13,1054.48,216.14,1094,216.14z"/>
			<path class="st2" d="M1094,359.55c-38.9,0-70.57-30.98-71.67-69.62c0.83,38.7,32.59,69.95,71.39,69.95
				c39.42,0,71.22-31.36,71.95-70.15C1164.68,328.46,1132.97,359.55,1094,359.55z"/>
			<path class="st3" d="M820.18,86.7c0-39.32,32.08-71.41,71.98-71.41c-79.79,0-151.77,34.41-201.84,89.09
				c44.5,48.61,71.68,113.24,71.68,183.99c0-71.51,58.18-130.16,130.16-130.16C852.26,158.21,820.18,126.11,820.18,86.7z"/>
			<path class="st4" d="M963.66,86.7c0-39.32-32.09-71.41-71.51-71.41c-39.89,0-71.98,32.09-71.98,71.41
				c0,39.41,32.08,71.51,71.98,71.51C931.57,158.21,963.66,126.11,963.66,86.7z"/>
			<path class="st5" d="M488.44,15.28c39.41,0,71.51,32.09,71.51,71.41c0,39.41-32.09,71.51-71.51,71.51
				c71.97,0,130.15,58.65,130.15,130.16c0-70.75,27.21-135.38,71.72-183.99C640.25,49.69,568.28,15.28,488.44,15.28z"/>
			<path class="st6" d="M559.95,86.7c0-39.32-32.09-71.41-71.51-71.41c-39.88,0-71.88,32.09-71.88,71.41
				c0,39.41,32,71.51,71.88,71.51C527.86,158.21,559.95,126.11,559.95,86.7z"/>
			<path class="st7" d="M618.59,288.37c0,0.14,0,0.28,0.01,0.42c0.23-39.4,32.24-71.27,71.7-71.27c39.46,0,71.47,31.87,71.7,71.27
				c0-0.14,0.01-0.28,0.01-0.42c0-70.75-27.19-135.38-71.68-183.99C645.8,152.99,618.59,217.62,618.59,288.37z"/>
			<path class="st8" d="M690.11,359.88c-39.27,0-71.28-31.86-71.51-71.08c0,0.14-0.01,0.28-0.01,0.43c0,39.6,32.1,71.7,71.7,71.7
				s71.7-32.1,71.7-71.7c0-0.14,0-0.28-0.01-0.43C761.76,328.01,729.76,359.88,690.11,359.88z"/>
			<path class="st5" d="M690.29,217.52c-39.46,0-71.47,31.87-71.7,71.27c0.23,39.22,32.24,71.08,71.51,71.08
				c39.65,0,71.65-31.86,71.88-71.08C761.76,249.39,729.75,217.52,690.29,217.52z"/>
			<path class="st9" d="M690.29,217.52c-39.46,0-71.47,31.87-71.7,71.27c0.23,39.22,32.24,71.08,71.51,71.08
				c39.65,0,71.65-31.86,71.88-71.08C761.76,249.39,729.75,217.52,690.29,217.52z"/>
			<path class="st0" d="M286.58,359.55c39.6,0,71.7-32.1,71.7-71.7c0-39.6-32.1-71.7-71.7-71.7c-39.03,0-70.78,31.19-71.68,70.01
				c-0.01,0.74-0.01,1.47-0.01,2.21c0,0.45,0.01,0.91,0.02,1.36C215.91,328.46,247.61,359.55,286.58,359.55z"/>
			<path class="st5" d="M286.58,359.55c39.6,0,71.7-32.1,71.7-71.7c0-39.6-32.1-71.7-71.7-71.7c-39.03,0-70.78,31.19-71.68,70.01
				c-0.01,0.74-0.01,1.47-0.01,2.21c0,0.45,0.01,0.91,0.02,1.36C215.91,328.46,247.61,359.55,286.58,359.55z"/>
			<path class="st10" d="M1022.31,287.62c0,0.07,0,0.15,0,0.22c0,0.7,0.01,1.39,0.03,2.08c-0.01-0.52-0.02-1.04-0.02-1.56
				C1022.32,288.12,1022.31,287.87,1022.31,287.62z"/>
			<path class="st10" d="M1165.68,289.73c0.02-0.62,0.02-1.25,0.02-1.88c0-0.57-0.01-1.13-0.02-1.69c0.01,0.74,0.01,1.47,0.01,2.21
				C1165.7,288.82,1165.69,289.27,1165.68,289.73z"/>
			<path class="st10" d="M1094,359.55c38.97,0,70.68-31.09,71.68-69.82c0.01-0.45,0.02-0.9,0.02-1.36c0-0.74-0.01-1.48-0.01-2.21
				c-0.9-38.82-32.65-70.01-71.68-70.01c-39.52,0-71.58,31.98-71.7,71.48c0,0.25,0.01,0.5,0.01,0.75c0,0.52,0.01,1.04,0.02,1.56
				C1023.44,328.56,1055.1,359.55,1094,359.55z"/>
		</g>
	</g>
	<g>
		<g>
			<g>
				<g>
					<path class="st11" d="M699.71,534.55c-21.59-12.26-45.34-18.4-71.25-18.4c-26.26,0-50.09,6.14-71.51,18.4
						c-21.42,12.27-38.34,29.36-50.78,51.3c-12.44,21.94-18.65,46.72-18.65,74.36c0,27.64,6.22,52.42,18.65,74.36
						c12.44,21.94,29.36,38.95,50.78,51.04c21.41,12.1,45.25,18.14,71.51,18.14c25.91,0,49.66-6.04,71.25-18.14
						c21.59-12.09,38.6-29.1,51.04-51.04c12.44-21.93,18.65-46.72,18.65-74.36c0-27.63-6.22-52.42-18.65-74.36
						C738.32,563.92,721.3,546.82,699.71,534.55z M696.61,705.29c-7.08,13.13-16.58,23.32-28.5,30.57
						c-11.92,7.25-25.13,10.88-39.64,10.88c-14.51,0-27.72-3.63-39.64-10.88c-11.92-7.25-21.42-17.44-28.5-30.57
						c-7.08-13.12-10.62-28.15-10.62-45.08c0-16.92,3.54-32.04,10.62-45.34c7.08-13.29,16.58-23.58,28.5-30.83
						c11.92-7.25,25.13-10.88,39.64-10.88c14.51,0,27.72,3.63,39.64,10.88c11.92,7.25,21.42,17.54,28.5,30.83
						c7.08,13.3,10.62,28.42,10.62,45.34C707.23,677.14,703.68,692.17,696.61,705.29z"/>
					<path class="st11" d="M438.21,741.09c0-34.47,0.14-68.94,0-103.41c-0.14-32.82-9.47-64.13-32.1-88.48
						c-23.77-24.36-56.78-36.86-90.75-35.95c-26.66,0.71-50.02,11.63-68.64,29.26c-5.35,5.07-13.86,5.14-19.25,0.1
						c-27.86-26.04-64.96-35.01-103.8-25.46c-42.71,10.5-74.81,44.91-83.64,87.79c-4.81,23.35-3.14,48.13-3.14,71.85
						c0,24.84,0,49.68,0,74.52v35.66c0,11.62,9.47,20.22,20.97,18.62c2.4-0.33,4.8-0.89,7.21-1.79
						c13.01-4.87,23.97-14.44,30.17-26.92c4.23-8.51,4.63-16.8,4.54-25.57h0c-0.16-39.42-0.36-78.85,0.13-118.25
						c0.21-16.39,4.32-32.56,15.45-45.04c12.35-13.84,30.8-17.17,48.36-12.78c25.73,6.44,41.55,27.34,41.62,53.31
						c0.1,34.81,0,69.63,0,104.44c0,5.83-0.33,11.83-0.28,17.8h-0.01v36.17c0,11.78,9.6,20.51,21.26,18.89
						c2.44-0.34,4.86-0.9,7.31-1.81c13.19-4.94,24.31-14.64,30.59-27.3c4.27-8.59,4.69-16.96,4.6-25.82l0-121.4
						c0-23.83,11.52-43.32,34.57-52.15c15.49-5.93,34.77-5.87,48.62,4.05c14.26,10.21,21.64,28.36,22.95,45.36
						c2.06,26.73,0.22,54.21,0.22,80.99v43.55v35.82c0,11.67,9.51,20.31,21.06,18.71c2.41-0.34,4.82-0.89,7.24-1.8
						c13.07-4.89,24.07-14.5,30.3-27.04c4.24-8.55,4.65-16.87,4.56-25.69C438.31,747.99,438.21,744.6,438.21,741.09z"/>
				</g>
				<g>
					<path class="st11" d="M1163.45,681.45h131.1h1.76c27.04,0,48.92-21.87,48.94-48.9c0-0.01,0-0.03-0.01-0.04
						c-0.15-0.96-2.23-58.82-64.96-97.7c-20.21-12.44-41.71-15.78-64.51-15.78c-23.15,0-44.91,3.09-65.29,15
						c-20.39,11.92-36.79,29.11-49.23,51.56c-7.41,13.39-12.56,28.09-15.56,44.04c-0.18,0.95-0.31,1.92-0.47,2.87
						c-1.7,9.96-2.63,20.37-2.63,31.33c0,26.6,5.87,50.52,17.62,71.77c11.74,21.24,28.41,37.92,50,50
						c21.58,12.1,46.89,18.14,75.91,18.14c16.58,0,32.98-2.77,49.23-8.29c16.23-5.52,29.19-12.26,38.86-20.21
						c9.67-7.59,14.51-16.06,14.51-25.39c0-6.91-2.59-12.95-7.77-18.14c-5.18-5.18-11.4-7.77-18.65-7.77
						c-5.33,0-38.17,16.32-46.12,18.91c-7.95,2.59-19,3.89-33.16,3.89c-14.65,0-28.11-3.62-40.41-10.76
						c-3.36-1.95-6.66-4.12-9.85-6.6c-4.8-3.74-9.04-7.94-12.72-12.6c-3.75-4.75-6.93-9.97-9.52-15.67
						C1146.34,691.9,1153.33,681.45,1163.45,681.45z M1145.12,632.51c-2.52-1.12-3.84-3.87-3.19-6.52
						c10.56-30.31,39.36-52.07,73.27-52.07c33.91,0,62.71,21.76,73.27,52.06c0.65,2.65-0.67,5.39-3.19,6.52H1145.12z"/>
				</g>
				<g>
					<g>
						<path class="st11" d="M901.88,785.25c0,0.01,0.01,0.01,0.01,0.02c-0.01-0.02-0.01-0.03-0.02-0.05
							C901.87,785.23,901.87,785.24,901.88,785.25z"/>
						<path class="st11" d="M1050.42,522.6L1050.42,522.6c-6.22-6.02-14.04-9.08-23.26-9.11c-6.7-0.36-12.88,1.44-18.38,5.37
							c-5.39,3.85-9.67,9.45-12.68,16.61l-54.63,128.49c-4.9,11.27-20.88,11.28-25.8,0.02l-55.11-129.06
							c-3.07-6.89-7.74-12.33-13.9-16.19c-6.12-3.82-12.91-5.76-20.15-5.76h-50.11c0,0,120.26,266.12,120.9,267.68
							c0.01,0.02,0.01,0.03,0.02,0.05c3.7,8.15,9.75,13.78,17.96,16.74l0,0c8.14,2.91,16.54,2.47,24.94-1.32
							c6.25-2.43,11.13-6.63,14.52-12.48c0.07-0.12,100.64-221.28,100.64-221.28c3.01-6.78,4.47-12.37,4.47-17.09
							C1059.87,536.32,1056.69,528.69,1050.42,522.6z"/>
					</g>
				</g>
			</g>
			<g>
				<path class="st5" d="M119.13,971.23c-7.45,10.41-21.54,12.07-24.61,12.43c-1.89,0.24-6.75,0.83-12.07,0.83
					c-2.37,0-12.66-0.24-21.54-2.48c-1.89-0.47-4.85-1.18-8.99-2.96c-4.38-1.89-7.34-4.02-8.76-5.09c-4.5-3.43-6.51-6.51-7.81-8.4
					l11-4.5c0.59,0.71,1.07,1.3,1.78,2.01c1.77,1.78,5.68,4.85,11.48,7.22c9.59,3.9,20.95,4.02,23.67,4.02
					c2.13,0,14.67,0.35,22.72-5.68c4.97-3.79,5.68-8.99,5.68-11.24c0-4.85-2.72-8.4-7.1-10.3c-6.15-2.72-20.59-3.55-27.22-4.14
					c-15.98-1.3-23.79-2.13-29.94-7.81c-5.68-5.21-5.92-11.12-5.92-13.96c0-11.72,8.05-17.04,11.6-18.93
					c4.97-2.72,14.08-5.44,27.57-5.44c16.57,0,26.51,4.02,32.54,7.93c1.42,0.95,2.6,1.78,3.79,2.84c2.72,2.25,4.73,5.21,5.44,6.04
					l-10.89,4.38c-0.59-0.59-2.72-2.72-5.09-4.38c-4.61-3.2-12.54-6.98-25.68-6.98c-8.52,0-15.15,1.54-18.22,2.72
					c-7.22,2.72-9.23,7.69-9.23,11.24c0,1.78,0.47,3.67,1.42,5.21c2.96,4.73,8.87,5.21,13.72,5.8c9.23,1.18,18.46,1.66,27.69,2.72
					c12.9,1.54,18.81,4.85,22.84,9.82c4.14,5.33,4.38,10.65,4.38,13.13C123.39,964.36,120.78,968.98,119.13,971.23z"/>
				<path class="st5" d="M285.85,970.28c-5.8,6.03-18.58,14.44-39.52,14.44c-2.13,0-6.98-0.12-12.78-1.06
					c-5.68-0.83-22.6-3.9-32.31-19.53c-5.68-9.23-6.04-18.7-6.04-22.48c0-9.58,2.49-19.17,8.4-26.62c1.18-1.54,2.72-3.31,6.03-6.03
					c5.68-4.73,17.16-12.07,35.97-12.07c3.79,0,15.15,0.35,25.91,5.33c6.86,3.19,13.49,8.4,17.87,14.67
					c6.86,9.94,7.34,20.94,7.34,24.97C296.74,946.73,296.03,959.75,285.85,970.28z M281.71,926.14
					c-8.99-19.29-32.78-19.17-37.51-19.05c-3.55,0.12-18.58,0.95-28.28,10.65c-1.66,1.66-4.97,5.33-6.98,11.24
					c-1.3,3.79-1.89,8.16-1.89,12.19c0,3.08,0.35,12.07,6.03,19.76c1.19,1.54,2.96,3.67,6.63,6.27c4.85,3.43,13.02,7.22,26.86,7.22
					c2.25,0,7.81,0,14.08-1.66c11.71-3.08,20.23-10.89,23.07-22.72c0.35-1.66,1.06-5.09,1.06-9.35
					C284.79,933.6,282.9,928.63,281.71,926.14z"/>
				<path class="st5" d="M373.3,982.47v-83.54h11.83v73.36h55.49v10.18H373.3z"/>
				<path class="st5" d="M593.28,964.84c-6.51,15.86-25.09,19.64-40.23,19.64c-4.02,0-19.29,0.12-31.12-8.16
					c-4.97-3.43-7.22-7.1-8.4-9.23c-3.31-6.15-3.55-12.31-3.55-19.05v-49.11h11.95v49.58c0,0.95-0.12,4.5,0.47,7.81
					c1.18,7.69,5.09,10.41,8.05,12.31c4.14,2.6,11,5.56,22.72,5.56c1.54,0,15.62,0,23.67-5.92c2.84-2.13,4.5-4.97,4.97-6.03
					c1.89-3.9,1.89-7.81,1.89-12.19v-51.12h11.95v50.29C595.64,954.78,595.53,959.51,593.28,964.84z"/>
				<path class="st5" d="M713.98,908.87v73.6h-11.84v-73.6h-34.08v-9.94h80.11v9.94H713.98z"/>
				<path class="st5" d="M820.48,982.47v-83.54h12.07v83.54H820.48z"/>
				<path class="st5" d="M999.27,970.28c-5.8,6.03-18.58,14.44-39.52,14.44c-2.13,0-6.98-0.12-12.78-1.06
					c-5.68-0.83-22.6-3.9-32.31-19.53c-5.68-9.23-6.03-18.7-6.03-22.48c0-9.58,2.48-19.17,8.4-26.62c1.18-1.54,2.72-3.31,6.03-6.03
					c5.68-4.73,17.16-12.07,35.97-12.07c3.79,0,15.15,0.35,25.91,5.33c6.86,3.19,13.49,8.4,17.87,14.67
					c6.86,9.94,7.34,20.94,7.34,24.97C1010.15,946.73,1009.45,959.75,999.27,970.28z M995.13,926.14
					c-8.99-19.29-32.78-19.17-37.51-19.05c-3.55,0.12-18.58,0.95-28.28,10.65c-1.66,1.66-4.97,5.33-6.98,11.24
					c-1.3,3.79-1.89,8.16-1.89,12.19c0,3.08,0.35,12.07,6.03,19.76c1.19,1.54,2.96,3.67,6.63,6.27c4.85,3.43,13.02,7.22,26.86,7.22
					c2.25,0,7.81,0,14.08-1.66c11.71-3.08,20.23-10.89,23.07-22.72c0.35-1.66,1.06-5.09,1.06-9.35
					C998.2,933.6,996.31,928.63,995.13,926.14z"/>
				<path class="st5" d="M1163.16,982.47l-65.44-69.1l0.24,69.1h-11.36v-83.54h12.19l64.96,68.99l-0.35-68.99h11.36v83.54H1163.16z"
					/>
				<path class="st5" d="M1331.54,971.23c-7.45,10.41-21.54,12.07-24.61,12.43c-1.89,0.24-6.75,0.83-12.07,0.83
					c-2.37,0-12.66-0.24-21.54-2.48c-1.89-0.47-4.85-1.18-8.99-2.96c-4.38-1.89-7.34-4.02-8.76-5.09c-4.5-3.43-6.51-6.51-7.81-8.4
					l11-4.5c0.59,0.71,1.06,1.3,1.77,2.01c1.77,1.78,5.68,4.85,11.48,7.22c9.59,3.9,20.95,4.02,23.67,4.02
					c2.13,0,14.67,0.35,22.72-5.68c4.97-3.79,5.68-8.99,5.68-11.24c0-4.85-2.72-8.4-7.1-10.3c-6.15-2.72-20.59-3.55-27.22-4.14
					c-15.98-1.3-23.79-2.13-29.94-7.81c-5.68-5.21-5.92-11.12-5.92-13.96c0-11.72,8.05-17.04,11.6-18.93
					c4.97-2.72,14.08-5.44,27.57-5.44c16.57,0,26.51,4.02,32.54,7.93c1.42,0.95,2.6,1.78,3.79,2.84c2.72,2.25,4.73,5.21,5.44,6.04
					l-10.89,4.38c-0.59-0.59-2.72-2.72-5.09-4.38c-4.61-3.2-12.54-6.98-25.68-6.98c-8.52,0-15.15,1.54-18.22,2.72
					c-7.22,2.72-9.23,7.69-9.23,11.24c0,1.78,0.47,3.67,1.42,5.21c2.96,4.73,8.87,5.21,13.72,5.8c9.23,1.18,18.46,1.66,27.69,2.72
					c12.9,1.54,18.81,4.85,22.84,9.82c4.14,5.33,4.38,10.65,4.38,13.13C1335.8,964.36,1333.2,968.98,1331.54,971.23z"/>
			</g>
		</g>
	</g>
</g>
</svg>
